<svg width="40" height="47" viewBox="0 0 40 47" fill="none" xmlns="http://www.w3.org/2000/svg">
<path fill-rule="evenodd" clip-rule="evenodd" d="M7.09091 0.454544H0.63636L6 9.18133V47H17.4545V42.166H22.6292C22.785 42.166 22.9389 42.1648 23.0909 42.1622V46.9971C22.9383 46.999 22.7844 47 22.6292 47H23.0909V46.9971C26.5054 46.9539 29.2953 46.4275 31.4607 45.418C33.7229 44.3633 35.3783 42.9351 36.427 41.1333C37.4757 39.3315 38 37.3027 38 35.0469C38 32.6738 37.5206 30.667 36.5618 29.0264C35.603 27.3857 34.412 26.126 32.9888 25.2471C31.5655 24.3682 30.1498 23.8848 28.7416 23.7969V23.3574C30.0599 23.0059 31.2809 22.4639 32.4045 21.7314C33.5431 20.999 34.4569 20.0029 35.1461 18.7432C35.8502 17.4834 36.2023 15.8867 36.2023 13.9531C36.2023 11.9753 35.7895 10.1576 34.9641 8.50021L39.9091 0.454544H33.4545L31.1751 4.291C30.811 4.05525 30.4267 3.83357 30.0225 3.62598C27.9401 2.54199 25.2959 2 22.0899 2H8.00913L7.09091 0.454544ZM11.573 7.99841L8.00913 2H6V9.18133L11.573 18.2488V21.7754H13.7405L16.6576 26.5215H11.573V42.166H17.4545V27.8182L16.6576 26.5215H22.8989C23.2293 26.5215 23.5523 26.5322 23.8681 26.5536L23.0909 27.8182V42.1622C26.489 42.1058 28.9193 41.4186 30.382 40.1006C31.9251 38.709 32.6966 37.0244 32.6966 35.0469C32.6966 33.5234 32.2996 32.1172 31.5056 30.8281C30.7116 29.5244 29.5805 28.4844 28.1124 27.708C26.8858 27.0472 25.4711 26.6624 23.8681 26.5536L27.9553 19.9037C28.6338 19.3914 29.2105 18.7849 29.6854 18.084C30.2591 17.2529 30.6294 16.3187 30.7962 15.2814L34.9641 8.50021C34.8725 8.31636 34.7759 8.13449 34.6742 7.95459C33.8532 6.49081 32.6869 5.26961 31.1751 4.291L28.5533 8.70387C27.1369 7.45728 24.9825 6.83398 22.0899 6.83398H11.573V7.99841ZM19.7585 21.7754H13.7405L11.573 18.2488V7.99841L19.7585 21.7754ZM19.7585 21.7754H20.7869L20.5455 22.1818H20L19.7585 21.7754ZM20.7869 21.7754H21.9101C23.588 21.7754 25.1011 21.4531 26.4494 20.8086C26.9974 20.5495 27.4993 20.2479 27.9553 19.9037L30.7962 15.2814C30.8647 14.856 30.8989 14.4132 30.8989 13.9531C30.8989 11.9756 30.1948 10.2983 28.7865 8.92139C28.7111 8.84689 28.6334 8.77438 28.5533 8.70387L20.7869 21.7754Z" fill="#3A89E7"/>
</svg>
